<svg width="35" height="35" viewBox="0 0 35 35" fill="none" xmlns="http://www.w3.org/2000/svg">
<path d="M5.8625 11.573H6.67436L6.84116 10.7785L7.39533 8.13891L7.39534 8.13891L7.39616 8.13494C7.64857 6.90793 8.00612 5.9187 8.68256 5.22409C9.32593 4.56344 10.3956 4.03345 12.3813 4.03345H22.6188C24.6044 4.03345 25.6741 4.56344 26.3174 5.22409C26.9939 5.91871 27.3514 6.90793 27.6038 8.13494L27.6047 8.13891L28.1588 10.7785L28.3256 11.573H29.1375H30.625C30.6426 11.573 30.6661 11.5799 30.689 11.6028C30.7119 11.6257 30.7188 11.6492 30.7188 11.6668C30.7188 11.6844 30.7119 11.7079 30.689 11.7308C30.6661 11.7537 30.6426 11.7605 30.625 11.7605H4.375C4.35741 11.7605 4.33392 11.7537 4.31101 11.7308C4.28811 11.7079 4.28125 11.6844 4.28125 11.6668C4.28125 11.6492 4.28811 11.6257 4.31101 11.6028C4.33392 11.5799 4.35741 11.573 4.375 11.573H5.8625Z" stroke="white" stroke-width="2"/>
<path d="M31.3501 20.0124L31.35 20.0113C31.2419 18.8228 31.04 17.8548 30.4752 17.1661C29.9561 16.5331 28.963 15.9479 26.8042 15.9479H8.19586C6.03733 15.9479 5.04839 16.5329 4.53101 17.1652C3.96703 17.8545 3.76555 18.8223 3.64976 20.0149C3.64968 20.0157 3.6496 20.0165 3.64952 20.0173L2.83332 28.8936L2.83331 28.8938C2.75673 29.7251 3.03036 30.5547 3.59711 31.176L31.3501 20.0124ZM31.3501 20.0124L32.1667 28.8936L32.1667 28.8938M31.3501 20.0124L32.1667 28.8938M10.7909 30.615L10.7909 30.615L11.0826 29.74L11.0906 29.7159C11.1668 29.4873 11.2508 29.235 11.3511 29.0174C11.4612 28.7783 11.623 28.5055 11.8967 28.28C12.433 27.8381 13.135 27.802 13.7667 27.802H21.2334C21.565 27.802 21.8828 27.8101 22.1622 27.8546C22.4552 27.9013 22.7778 27.9982 23.0695 28.2276C23.3566 28.4536 23.5209 28.7358 23.6308 28.975C23.7292 29.1889 23.8167 29.4451 23.9003 29.6897C23.9052 29.704 23.9101 29.7183 23.9149 29.7325L23.9175 29.74L23.9175 29.74L24.2091 30.615L24.2107 30.6197C24.3617 31.0805 24.4898 31.4231 24.7484 31.6849C24.967 31.9062 25.3928 32.177 26.3667 32.177H29.1084C29.9845 32.177 30.8229 31.8103 31.4029 31.176L10.7909 30.615ZM10.7909 30.615L10.7894 30.6197M10.7909 30.615L10.7894 30.6197M10.7894 30.6197C10.6383 31.0805 10.5103 31.4231 10.2516 31.6849C10.033 31.9062 9.60722 32.177 8.63336 32.177H5.89169C5.00289 32.177 4.17836 31.8117 3.59712 31.176L10.7894 30.6197ZM32.1667 28.8938C32.2433 29.7249 31.9699 30.5542 31.4035 31.1754L32.1667 28.8938ZM8.75002 23.9687H13.125C14.2752 23.9687 15.2188 23.0252 15.2188 21.875C15.2188 20.7248 14.2752 19.7812 13.125 19.7812H8.75002C7.59982 19.7812 6.65627 20.7248 6.65627 21.875C6.65627 23.0252 7.59982 23.9687 8.75002 23.9687ZM21.875 23.9687H26.25C27.4002 23.9687 28.3438 23.0252 28.3438 21.875C28.3438 20.7248 27.4002 19.7812 26.25 19.7812H21.875C20.7248 19.7812 19.7813 20.7248 19.7813 21.875C19.7813 23.0252 20.7248 23.9687 21.875 23.9687Z" stroke="white" stroke-width="2"/>
</svg>
