<svg width="35" height="35" viewBox="0 0 35 35" fill="none" xmlns="http://www.w3.org/2000/svg">
<g id="vuesax/bold/home">
<g id="home">
<path id="Vector" d="M16.2376 10.9602L16.238 10.9598C17.0048 10.344 18.245 10.3466 19.0254 10.9682C19.0255 10.9683 19.0257 10.9684 19.0258 10.9685L23.9356 14.8964C24.1979 15.1108 24.4314 15.4525 24.5835 15.8504C24.7353 16.2478 24.7895 16.6586 24.7387 16.9935L23.7948 22.642C23.7947 22.6424 23.7946 22.6429 23.7945 22.6434C23.6174 23.6588 22.6231 24.5 21.6024 24.5H13.6524C12.6154 24.5 11.6449 23.6801 11.4679 22.6514C11.4678 22.6511 11.4678 22.6508 11.4677 22.6504L10.5231 16.9976L10.5229 16.9965C10.4657 16.6593 10.5163 16.2479 10.6677 15.851C10.8191 15.4541 11.0554 15.1128 11.3243 14.8984L11.3251 14.8977L16.2376 10.9602ZM17.6274 23.0625C18.211 23.0625 18.6899 22.5836 18.6899 22V19.75C18.6899 19.1664 18.211 18.6875 17.6274 18.6875C17.0438 18.6875 16.5649 19.1664 16.5649 19.75V22C16.5649 22.5836 17.0438 23.0625 17.6274 23.0625Z" stroke="white"/>
</g>
</g>
</svg>
