<svg width="25" height="25" viewBox="0 0 25 25" fill="none" xmlns="http://www.w3.org/2000/svg">
<g id="vuesax/bold/percentage-circle">
<g id="percentage-circle">
<path id="Vector" d="M19 12.4375C19 8.57364 15.8639 5.4375 12 5.4375C8.13614 5.4375 5 8.57364 5 12.4375C5 16.3014 8.13614 19.4375 12 19.4375C15.8639 19.4375 19 16.3014 19 12.4375ZM12.8425 10.2925C12.8425 9.39916 13.5711 8.6825 14.4525 8.6825C15.3436 8.6825 16.0625 9.40136 16.0625 10.2925C16.0625 11.1858 15.3339 11.9025 14.4525 11.9025C13.5592 11.9025 12.8425 11.1739 12.8425 10.2925ZM14.76 15.9525C14.492 15.9525 14.2202 15.8523 14.0089 15.6411L9.09645 10.7286C8.68368 10.3158 8.68368 9.63921 9.09645 9.22645C9.50921 8.81368 10.1858 8.81368 10.5986 9.22645L15.5111 14.1389C15.9238 14.5517 15.9238 15.2283 15.5111 15.6411C15.2998 15.8523 15.028 15.9525 14.76 15.9525ZM11.1575 14.5825C11.1575 15.4758 10.4289 16.1925 9.5475 16.1925C8.65636 16.1925 7.9375 15.4736 7.9375 14.5825C7.9375 13.6892 8.66606 12.9725 9.5475 12.9725C10.4408 12.9725 11.1575 13.7011 11.1575 14.5825Z" stroke="white"/>
</g>
</g>
</svg>
