<svg width="25" height="25" viewBox="0 0 25 25" fill="none" xmlns="http://www.w3.org/2000/svg">
<g id="COCO/Bold/Setting">
<path id="Vector" fill-rule="evenodd" clip-rule="evenodd" d="M10.7 19.7C10.7 20.6941 11.5059 21.5 12.5 21.5C13.4941 21.5 14.3 20.6941 14.3 19.7V18.5391C14.719 18.4144 15.1197 18.2473 15.4972 18.0428L16.3184 18.864C17.0213 19.5669 18.161 19.5669 18.864 18.864C19.5669 18.161 19.5669 17.0213 18.864 16.3184L18.0428 15.4972C18.2473 15.1197 18.4144 14.719 18.5391 14.3H19.7C20.6941 14.3 21.5 13.4941 21.5 12.5C21.5 11.5059 20.6941 10.7 19.7 10.7H18.5391C18.4144 10.281 18.2473 9.8803 18.0428 9.50282L18.864 8.68163C19.5669 7.97869 19.5669 6.83899 18.864 6.13604C18.161 5.4331 17.0213 5.4331 16.3184 6.13604L15.4972 6.95724C15.1197 6.7527 14.719 6.58559 14.3 6.46089V5.3C14.3 4.30589 13.4941 3.5 12.5 3.5C11.5059 3.5 10.7 4.30589 10.7 5.3V6.46089C10.281 6.58559 9.8803 6.7527 9.50282 6.95724L8.68163 6.13605C7.97869 5.4331 6.83899 5.4331 6.13604 6.13605C5.4331 6.83899 5.4331 7.97869 6.13604 8.68163L6.95724 9.50283C6.7527 9.8803 6.58559 10.281 6.46089 10.7H5.3C4.30589 10.7 3.5 11.5059 3.5 12.5C3.5 13.4941 4.30589 14.3 5.3 14.3H6.46089C6.58559 14.719 6.7527 15.1197 6.95724 15.4972L6.13603 16.3184C5.43309 17.0213 5.43309 18.161 6.13603 18.864C6.83897 19.5669 7.97867 19.5669 8.68161 18.864L9.50282 18.0428C9.88029 18.2473 10.281 18.4144 10.7 18.5391V19.7ZM12.5 15.2C13.9912 15.2 15.2 13.9912 15.2 12.5C15.2 11.0088 13.9912 9.79999 12.5 9.79999C11.0088 9.79999 9.79999 11.0088 9.79999 12.5C9.79999 13.9912 11.0088 15.2 12.5 15.2Z" stroke="#FF3B30" stroke-linecap="round" stroke-linejoin="round"/>
</g>
</svg>
